<svg preserveAspectRatio="none" width="100%" height="100%" overflow="visible" style="display: block;" viewBox="0 0 20 16.6666" fill="none" xmlns="http://www.w3.org/2000/svg">
<path id="Vector" d="M7.15316 2.84032C8.4198 0.946775 9.0531 0 10 0C10.9469 0 11.5802 0.946767 12.8468 2.84031L13.1745 3.33019C13.5345 3.86828 13.7144 4.13733 13.9951 4.31484C14.2757 4.49236 14.6251 4.55825 15.3241 4.69004L15.9605 4.81003C18.4201 5.2738 19.65 5.50568 19.9426 6.28978C20.2352 7.07383 19.3968 7.89092 17.7199 9.52492L17.2861 9.94767C16.8096 10.412 16.5713 10.6442 16.4641 10.9314C16.357 11.2187 16.393 11.5284 16.465 12.148L16.5306 12.712C16.7841 14.8922 16.9109 15.9823 16.1449 16.4668C15.3788 16.9514 14.2273 16.5096 11.9243 15.626L11.3285 15.3973C10.6741 15.1463 10.3469 15.0207 10 15.0207C9.6531 15.0207 9.3259 15.1463 8.6715 15.3973L8.0757 15.626C5.77268 16.5096 4.62118 16.9514 3.85515 16.4668C3.08912 15.9823 3.21588 14.8922 3.4694 12.712L3.53498 12.148C3.60703 11.5284 3.64305 11.2187 3.53586 10.9314C3.42868 10.6442 3.19043 10.412 2.71392 9.94767L2.2801 9.52492C0.603252 7.89092 -0.235178 7.07383 0.0574219 6.28978C0.350022 5.50568 1.57986 5.2738 4.03954 4.81003L4.67589 4.69004C5.37485 4.55825 5.72433 4.49236 6.00494 4.31484C6.28555 4.13733 6.46553 3.86828 6.82547 3.33019L7.15316 2.84032Z" fill="var(--fill-0, #DC3D50)"/>
</svg>
